<svg xmlns="http://www.w3.org/2000/svg" viewBox="0 0 800 450">
  <defs><linearGradient id="g" x1="0" y1="1" x2="1" y2="0"><stop offset="0" stop-color="#0d9488"/><stop offset="1" stop-color="#4f46e5"/></linearGradient></defs>
  <rect width="800" height="450" fill="url(#g)"/>
  <path d="M60 330 C160 330 180 380 260 360 S360 200 440 230 S560 120 740 90" fill="none" stroke="#fff" stroke-width="8" stroke-linecap="round"/>
  <g transform="translate(560 250) rotate(-12)" fill="#fff" opacity=".95">
    <path d="M-90 -40 H90 A20 20 0 0 1 110 -20 V40 A20 20 0 0 1 90 60 H-30 L-60 90 V60 H-90 A20 20 0 0 1 -110 40 V-20 A20 20 0 0 1 -90 -40 Z"/>
  </g>
  <g transform="translate(560 250) rotate(-12)" fill="#4f46e5"><circle cx="-40" cy="0" r="9"/><circle cx="0" cy="0" r="9"/><circle cx="40" cy="0" r="9"/></g>
  <path d="M170 110 l30 -60 l30 60 z" fill="#fff" opacity=".3" transform="rotate(20 200 90)"/>
  <text x="100" y="130" fill="#fff" font-family="Georgia,serif" font-size="40" font-weight="700" opacity=".95">✈ mood ↑</text>
</svg>
